<?xml version="1.0" encoding="utf-8" ?><svg xmlns="http://www.w3.org/2000/svg" xmlns:xlink="http://www.w3.org/1999/xlink" width="1024" height="1024" viewBox="0 0 1024 1024"><path transform="scale(2 2)" d="M176.239 116.416C178.448 115.321 180.785 113.607 182.959 112.378C225.737 86.0971 265.914 70.5475 315.786 67.5445C325.644 67.1664 343.348 67.676 353.235 70.0855C360.595 71.8791 362.824 82.9503 355.916 86.6737C352.384 88.6991 348.516 90.1808 344.813 91.887C309.558 108.132 263.883 132.616 234.666 159.206C246.08 169.809 234.321 175.572 226.391 184.132C229.569 187.647 235.092 192.515 238.695 196.135L427.31 385.468C434.086 392.198 438.596 396.686 438.715 407.058C438.859 419.577 423.255 435.617 410.353 435.495C399.821 435.396 397.702 430.634 390.967 424.146C384.419 417.839 378.265 411.12 371.818 404.717L291.586 324.429L204.687 238.29C199.844 233.415 193.359 226.496 188.203 222.131C177.594 234.063 174.301 242.505 161.031 229.932C158.911 233.496 156.293 236.823 153.917 240.256C131.494 272.644 112.659 307.309 95.3098 342.624C94.1132 345.325 93.1344 347.994 91.4593 350.454C86.7115 357.426 77.2492 354.528 76.0345 346.26C67.1396 285.714 85.4253 223.745 119.389 173.635C117.965 169.398 109.846 141.476 110.5 139.032C111.542 135.143 139.187 108.061 142.397 108.276C149.917 108.782 168.62 114.361 176.239 116.416ZM317.023 84.4392C266.456 85.898 239.642 101.785 197.726 122.879C202.271 127.894 207.639 132.761 212.453 137.625L222.255 147.656C243.836 125.879 288.505 100.641 315.593 87.256C317.905 86.1138 319.74 85.2328 322.213 84.4392C320.819 84.4275 318.328 84.3349 317.023 84.4392ZM145.936 126.2L135.769 136.523C133.782 138.521 130.467 141.611 128.877 143.809C129.878 149.037 131.304 154.076 132.714 159.206C134.849 157.098 137.004 155.001 139.068 152.824C146.566 145.121 154.307 137.521 161.91 129.904C157.302 128.921 150.284 127.584 145.936 126.2ZM183.479 132.457L135.388 179.964C140.488 185.75 148.44 192.982 154.148 198.785L166.666 211.544C167.349 212.232 170.613 215.604 171.212 216.019C187.008 201.816 204.785 183.314 219.356 167.957C207.168 156.398 195.187 144.495 183.479 132.457ZM125.509 194.023C108.77 225.778 97.1485 252.352 92.1646 288.876C90.8482 298.523 90.6406 307.026 89.8972 316.626L98.1653 300.398C112.614 273.572 130.551 241.55 149.799 217.726C141.08 209.771 133.915 202.189 125.509 194.023ZM214.541 195.961C210.801 199.682 203.862 207.395 199.973 210.235C204.787 215.299 209.809 220.077 214.782 224.983L408.861 418.683C411.93 420.012 427.629 409.641 419.49 401.116C405.385 386.344 390.716 372.088 376.285 357.641L221.394 202.849C220.269 201.73 215.454 196.514 214.541 195.961Z"/></svg>